<?xml version="1.0" encoding="UTF-8" standalone="no"?>
<!DOCTYPE svg PUBLIC "-//W3C//DTD SVG 1.1//EN" "http://www.w3.org/Graphics/SVG/1.1/DTD/svg11.dtd">
<svg width="100%" height="100%" viewBox="0 0 334 229" version="1.1" xmlns="http://www.w3.org/2000/svg" xmlns:xlink="http://www.w3.org/1999/xlink" xml:space="preserve" xmlns:serif="http://www.serif.com/" style="fill-rule:evenodd;clip-rule:evenodd;stroke-linecap:round;stroke-linejoin:round;stroke-miterlimit:10;">
    <g transform="matrix(1,0,0,1,-233,-606.7)">
        <path d="M273,754.3L273,730.8M283.9,745.6L273,756.5L262.1,745.6M400,754.3L400,730.8M410.8,745.6L400,756.5L389.1,745.6M527,754.3L527,730.8M537.9,745.6L527,756.5L516.1,745.6" style="fill:none;fill-rule:nonzero;stroke:rgb(64,64,64);stroke-width:4px;"/>
        <rect x="235" y="608.7" width="330" height="94" style="fill:white;fill-rule:nonzero;stroke:rgb(64,64,64);stroke-width:4px;"/>
        <rect x="235" y="783.7" width="76" height="50" style="fill:rgb(177,139,232);fill-rule:nonzero;stroke:rgb(64,64,64);stroke-width:4px;"/>
        <rect x="361.3" y="783.7" width="76" height="50" style="fill:rgb(78,209,161);fill-rule:nonzero;stroke:rgb(64,64,64);stroke-width:4px;"/>
        <rect x="489" y="783.7" width="76" height="50" style="fill:rgb(76,211,214);fill-rule:nonzero;stroke:rgb(64,64,64);stroke-width:4px;stroke-linecap:butt;"/>
        <path d="M307.6,655.7L491,655.7" style="fill:none;fill-rule:nonzero;stroke:rgb(64,64,64);stroke-width:4px;stroke-linecap:butt;stroke-linejoin:miter;"/>
        <circle cx="509" cy="655.7" r="18" style="fill:rgb(179,227,255);stroke:rgb(64,64,64);stroke-width:4px;stroke-linecap:butt;stroke-linejoin:miter;"/>
        <circle cx="399.3" cy="655.7" r="18" style="fill:rgb(179,227,255);stroke:rgb(64,64,64);stroke-width:4px;stroke-linecap:butt;stroke-linejoin:miter;"/>
        <circle cx="289.6" cy="655.7" r="18" style="fill:rgb(179,227,255);stroke:rgb(64,64,64);stroke-width:4px;stroke-linecap:butt;stroke-linejoin:miter;"/>
        <path d="M246.4,814.7L245,814.7L245,803.8L246.4,803.8L246.4,808.3C246.9,807.5 247.8,807.2 248.6,807.2C250.3,807.2 251.2,808.4 251.2,810.1L251.2,814.7L249.8,814.7L249.8,810.4C249.8,809.4 249.4,808.6 248.1,808.6C247,808.6 246.5,809.4 246.4,810.5L246.4,814.7ZM260.5,812.6C260.1,813.9 258.9,814.9 257.3,814.9C255.4,814.9 253.7,813.5 253.7,811C253.7,808.7 255.3,807.2 257.1,807.2C259.3,807.2 260.6,808.7 260.6,811L260.6,811.4L255,811.4C255,812.7 256,813.6 257.2,813.6C258.4,813.6 259,813 259.2,812.1L260.5,812.6ZM259,810.3C259,809.3 258.3,808.5 257,808.5C255.8,808.5 255.1,809.4 255,810.3L259,810.3ZM263.1,814.7L263.1,803.8L264.5,803.8L264.5,814.7L263.1,814.7ZM267.6,814.7L267.6,803.8L269,803.8L269,814.7L267.6,814.7ZM279,811.1C279,813.3 277.5,814.9 275.3,814.9C273.1,814.9 271.6,813.3 271.6,811.1C271.6,808.9 273.1,807.3 275.3,807.3C277.5,807.3 279,808.9 279,811.1ZM277.5,811.1C277.5,809.4 276.4,808.5 275.3,808.5C274.2,808.5 273.1,809.4 273.1,811.1C273.1,812.8 274.2,813.7 275.3,813.7C276.4,813.7 277.5,812.7 277.5,811.1ZM282.2,812.7C282.8,812.7 283.2,813.2 283.2,813.7C283.2,814.2 282.7,814.7 282.2,814.7C281.7,814.7 281.2,814.2 281.2,813.7C281.2,813.2 281.6,812.7 282.2,812.7ZM286.2,817.5L286.2,807.4L287.6,807.4L287.6,808.5C288,807.8 288.8,807.2 290,807.2C292.2,807.2 293.3,808.9 293.3,811C293.3,813.1 292.1,814.8 289.9,814.8C288.8,814.8 288,814.3 287.6,813.6L287.6,817.4L286.2,817.4L286.2,817.5ZM289.7,808.5C288.4,808.5 287.6,809.6 287.6,811C287.6,812.5 288.5,813.5 289.7,813.5C291,813.5 291.8,812.4 291.8,811C291.9,809.6 291.1,808.5 289.7,808.5ZM295.8,817.7L297.6,813.9L294.5,807.5L296.1,807.5L298.3,812.5L300.5,807.5L302,807.5L297.3,817.7L295.8,817.7ZM372.7,814.7L371.3,814.7L371.3,803.8L372.7,803.8L372.7,808.3C373.2,807.5 374.1,807.2 374.9,807.2C376.6,807.2 377.5,808.4 377.5,810.1L377.5,814.7L376.1,814.7L376.1,810.4C376.1,809.4 375.7,808.6 374.4,808.6C373.3,808.6 372.8,809.4 372.7,810.5L372.7,814.7ZM386.8,812.6C386.4,813.9 385.2,814.9 383.6,814.9C381.7,814.9 380,813.5 380,811C380,808.7 381.6,807.2 383.4,807.2C385.6,807.2 386.9,808.7 386.9,811L386.9,811.4L381.5,811.4C381.5,812.7 382.5,813.6 383.7,813.6C384.9,813.6 385.5,813 385.7,812.1L386.8,812.6ZM385.3,810.3C385.3,809.3 384.6,808.5 383.3,808.5C382.1,808.5 381.4,809.4 381.3,810.3L385.3,810.3ZM389.4,814.7L389.4,803.8L390.8,803.8L390.8,814.7L389.4,814.7ZM393.9,814.7L393.9,803.8L395.3,803.8L395.3,814.7L393.9,814.7ZM405.3,811.1C405.3,813.3 403.8,814.9 401.6,814.9C399.4,814.9 397.9,813.3 397.9,811.1C397.9,808.9 399.4,807.3 401.6,807.3C403.8,807.3 405.3,808.9 405.3,811.1ZM403.8,811.1C403.8,809.4 402.7,808.5 401.6,808.5C400.5,808.5 399.4,809.4 399.4,811.1C399.4,812.8 400.5,813.7 401.6,813.7C402.7,813.7 403.8,812.7 403.8,811.1ZM408.5,812.7C409.1,812.7 409.5,813.2 409.5,813.7C409.5,814.2 409,814.7 408.5,814.7C408,814.7 407.5,814.2 407.5,813.7C407.5,813.2 407.9,812.7 408.5,812.7ZM412.5,817.5L412.5,807.4L413.9,807.4L413.9,808.5C414.3,807.8 415.1,807.2 416.3,807.2C418.5,807.2 419.6,808.9 419.6,811C419.6,813.1 418.4,814.8 416.2,814.8C415.1,814.8 414.3,814.3 413.9,813.6L413.9,817.4L412.5,817.4L412.5,817.5ZM416,808.5C414.7,808.5 413.9,809.6 413.9,811C413.9,812.5 414.8,813.5 416,813.5C417.3,813.5 418.1,812.4 418.1,811C418.2,809.6 417.4,808.5 416,808.5ZM422.1,817.7L423.9,813.9L420.8,807.5L422.4,807.5L424.6,812.5L426.8,807.5L428.3,807.5L423.6,817.7L422.1,817.7ZM500.4,814.7L499,814.7L499,803.8L500.4,803.8L500.4,808.3C500.9,807.5 501.8,807.2 502.6,807.2C504.3,807.2 505.2,808.4 505.2,810.1L505.2,814.7L503.8,814.7L503.8,810.4C503.8,809.4 503.4,808.6 502.1,808.6C501,808.6 500.5,809.4 500.4,810.5L500.4,814.7ZM514.5,812.6C514.1,813.9 512.9,814.9 511.3,814.9C509.4,814.9 507.7,813.5 507.7,811C507.7,808.7 509.3,807.2 511.1,807.2C513.3,807.2 514.6,808.7 514.6,811L514.6,811.4L509,811.4C509,812.7 510,813.6 511.2,813.6C512.4,813.6 513,813 513.2,812.1L514.5,812.6ZM513,810.3C513,809.3 512.3,808.5 511,808.5C509.8,808.5 509.1,809.4 509,810.3L513,810.3ZM517.1,814.7L517.1,803.8L518.5,803.8L518.5,814.7L517.1,814.7ZM521.6,814.7L521.6,803.8L523,803.8L523,814.7L521.6,814.7ZM533,811.1C533,813.3 531.5,814.9 529.3,814.9C527.1,814.9 525.6,813.3 525.6,811.1C525.6,808.9 527.1,807.3 529.3,807.3C531.5,807.3 533,808.9 533,811.1ZM531.5,811.1C531.5,809.4 530.4,808.5 529.3,808.5C528.2,808.5 527.1,809.4 527.1,811.1C527.1,812.8 528.2,813.7 529.3,813.7C530.4,813.7 531.5,812.7 531.5,811.1ZM536.2,812.7C536.8,812.7 537.2,813.2 537.2,813.7C537.2,814.2 536.7,814.7 536.2,814.7C535.7,814.7 535.2,814.2 535.2,813.7C535.2,813.2 535.6,812.7 536.2,812.7ZM540.2,817.5L540.2,807.4L541.6,807.4L541.6,808.5C542,807.8 542.8,807.2 544,807.2C546.2,807.2 547.3,808.9 547.3,811C547.3,813.1 546.1,814.8 543.9,814.8C542.8,814.8 542,814.3 541.6,813.6L541.6,817.4L540.2,817.4L540.2,817.5ZM543.7,808.5C542.4,808.5 541.6,809.6 541.6,811C541.6,812.5 542.5,813.5 543.7,813.5C545,813.5 545.8,812.4 545.8,811C545.9,809.6 545.1,808.5 543.7,808.5ZM549.8,817.7L551.6,813.9L548.5,807.5L550.1,807.5L552.3,812.5L554.5,807.5L556,807.5L551.3,817.7L549.8,817.7Z" style="fill:rgb(64,64,64);fill-rule:nonzero;"/>
    </g>
</svg>
